<svg width="1600" height="900" viewBox="0 0 1600 900" fill="none" xmlns="http://www.w3.org/2000/svg">
  <defs>
    <linearGradient id="bg2" x1="100" y1="0" x2="1500" y2="900" gradientUnits="userSpaceOnUse">
      <stop offset="0" stop-color="#140C2A"/>
      <stop offset="0.5" stop-color="#2A1147"/>
      <stop offset="1" stop-color="#0F1D3E"/>
    </linearGradient>
    <radialGradient id="pulseA" cx="0" cy="0" r="1" gradientUnits="userSpaceOnUse" gradientTransform="translate(330 250) rotate(8) scale(340 250)">
      <stop stop-color="#FF7BC9" stop-opacity="0.68"/>
      <stop offset="1" stop-color="#FF7BC9" stop-opacity="0"/>
    </radialGradient>
    <radialGradient id="pulseB" cx="0" cy="0" r="1" gradientUnits="userSpaceOnUse" gradientTransform="translate(1260 650) rotate(-14) scale(420 280)">
      <stop stop-color="#6CE5FF" stop-opacity="0.52"/>
      <stop offset="1" stop-color="#6CE5FF" stop-opacity="0"/>
    </radialGradient>
  </defs>

  <rect width="1600" height="900" fill="url(#bg2)"/>
  <rect width="1600" height="900" fill="url(#pulseA)"/>
  <rect width="1600" height="900" fill="url(#pulseB)"/>

  <g opacity="0.18" stroke="#C6A8FF" stroke-width="1">
    <path d="M130 120H1470"/>
    <path d="M130 220H1470"/>
    <path d="M130 320H1470"/>
    <path d="M130 420H1470"/>
    <path d="M130 520H1470"/>
    <path d="M130 620H1470"/>
    <path d="M130 720H1470"/>
  </g>

  <rect x="120" y="120" width="1360" height="660" rx="34" fill="#170F31" stroke="#9F7DF8" stroke-opacity="0.35"/>

  <g>
    <rect x="170" y="180" width="290" height="180" rx="18" fill="#2B1850"/>
    <rect x="495" y="180" width="290" height="180" rx="18" fill="#331F5F"/>
    <rect x="820" y="180" width="290" height="180" rx="18" fill="#3A256F"/>
    <rect x="1145" y="180" width="290" height="180" rx="18" fill="#462C82"/>

    <rect x="170" y="400" width="500" height="320" rx="20" fill="#24184A"/>
    <rect x="690" y="400" width="320" height="320" rx="20" fill="#2B1D56"/>
    <rect x="1030" y="400" width="405" height="320" rx="20" fill="#312262"/>
  </g>

  <g stroke="#F2E9FF" stroke-width="3" stroke-linecap="round" opacity="0.75">
    <path d="M460 270H495"/>
    <path d="M785 270H820"/>
    <path d="M1110 270H1145"/>
  </g>

  <g>
    <circle cx="315" cy="270" r="18" fill="#FF9AD7"/>
    <circle cx="640" cy="270" r="18" fill="#FFC572"/>
    <circle cx="965" cy="270" r="18" fill="#78E7FF"/>
    <circle cx="1290" cy="270" r="18" fill="#8BFFBA"/>
  </g>

  <text x="205" y="250" fill="#FFE7FA" font-size="29" font-family="'Segoe UI', Arial, sans-serif" font-weight="700">Research</text>
  <text x="530" y="250" fill="#FFE7FA" font-size="29" font-family="'Segoe UI', Arial, sans-serif" font-weight="700">Model</text>
  <text x="855" y="250" fill="#FFE7FA" font-size="29" font-family="'Segoe UI', Arial, sans-serif" font-weight="700">Publish</text>
  <text x="1180" y="250" fill="#FFE7FA" font-size="29" font-family="'Segoe UI', Arial, sans-serif" font-weight="700">Measure</text>

  <text x="205" y="472" fill="#C9B2FF" font-size="24" font-family="'Segoe UI', Arial, sans-serif">Campaign backlog</text>
  <text x="725" y="472" fill="#D5C5FF" font-size="24" font-family="'Segoe UI', Arial, sans-serif">Release checklist</text>
  <text x="1065" y="472" fill="#DCCFFF" font-size="24" font-family="'Segoe UI', Arial, sans-serif">Recruiter story highlights</text>

  <text x="130" y="835" fill="#F4ECFF" font-size="52" font-family="'Segoe UI', Arial, sans-serif" font-weight="700">AI Product Roadmap Preview</text>
  <text x="130" y="875" fill="#CBB7FF" font-size="24" font-family="'Segoe UI', Arial, sans-serif">Generated visual concept for CMS-managed portfolio sections and content workflows</text>
</svg>
