<svg width="1600" height="900" viewBox="0 0 1600 900" fill="none" xmlns="http://www.w3.org/2000/svg">
  <defs>
    <linearGradient id="bg" x1="0" y1="0" x2="1600" y2="900" gradientUnits="userSpaceOnUse">
      <stop offset="0" stop-color="#0B1220"/>
      <stop offset="0.5" stop-color="#123057"/>
      <stop offset="1" stop-color="#0C2747"/>
    </linearGradient>
    <radialGradient id="orbA" cx="0" cy="0" r="1" gradientUnits="userSpaceOnUse" gradientTransform="translate(480 280) rotate(25) scale(420 280)">
      <stop stop-color="#30D1FF" stop-opacity="0.7"/>
      <stop offset="1" stop-color="#30D1FF" stop-opacity="0"/>
    </radialGradient>
    <radialGradient id="orbB" cx="0" cy="0" r="1" gradientUnits="userSpaceOnUse" gradientTransform="translate(1180 230) rotate(-12) scale(380 260)">
      <stop stop-color="#61FFA9" stop-opacity="0.55"/>
      <stop offset="1" stop-color="#61FFA9" stop-opacity="0"/>
    </radialGradient>
    <filter id="blur" x="-20%" y="-20%" width="140%" height="140%">
      <feGaussianBlur stdDeviation="24"/>
    </filter>
  </defs>

  <rect width="1600" height="900" fill="url(#bg)"/>
  <rect x="0" y="0" width="1600" height="900" fill="url(#orbA)"/>
  <rect x="0" y="0" width="1600" height="900" fill="url(#orbB)"/>

  <g opacity="0.28" stroke="#8BE0FF" stroke-width="1">
    <path d="M0 120H1600"/>
    <path d="M0 240H1600"/>
    <path d="M0 360H1600"/>
    <path d="M0 480H1600"/>
    <path d="M0 600H1600"/>
    <path d="M0 720H1600"/>
    <path d="M0 840H1600"/>
  </g>

  <g filter="url(#blur)">
    <rect x="180" y="180" width="470" height="300" rx="26" fill="#0B1A31"/>
    <rect x="700" y="130" width="700" height="420" rx="30" fill="#0D203C"/>
    <rect x="390" y="540" width="820" height="220" rx="24" fill="#0C1B33"/>
  </g>

  <g>
    <rect x="700" y="130" width="700" height="420" rx="30" fill="#102A4D" stroke="#4AC6FF" stroke-opacity="0.35"/>
    <rect x="725" y="165" width="650" height="70" rx="14" fill="#16365E"/>
    <rect x="725" y="255" width="305" height="270" rx="16" fill="#173F6B"/>
    <rect x="1045" y="255" width="330" height="170" rx="16" fill="#194877"/>
    <rect x="1045" y="440" width="330" height="85" rx="16" fill="#1D5388"/>
    <circle cx="750" cy="200" r="9" fill="#57D6FF"/>
    <circle cx="779" cy="200" r="9" fill="#78F7B7"/>
    <circle cx="808" cy="200" r="9" fill="#FFD783"/>
  </g>

  <g>
    <rect x="180" y="180" width="470" height="300" rx="26" fill="#10243F" stroke="#58D4FF" stroke-opacity="0.3"/>
    <rect x="210" y="215" width="410" height="55" rx="10" fill="#1B3B62"/>
    <rect x="210" y="285" width="190" height="165" rx="12" fill="#204E7A"/>
    <rect x="420" y="285" width="200" height="75" rx="12" fill="#265D90"/>
    <rect x="420" y="375" width="200" height="75" rx="12" fill="#2A6CA6"/>
  </g>

  <g>
    <rect x="390" y="540" width="820" height="220" rx="24" fill="#102744" stroke="#67E7C4" stroke-opacity="0.35"/>
    <rect x="425" y="575" width="240" height="150" rx="12" fill="#1D4A76"/>
    <rect x="685" y="575" width="240" height="150" rx="12" fill="#265987"/>
    <rect x="945" y="575" width="230" height="150" rx="12" fill="#2A6699"/>
  </g>

  <text x="130" y="820" fill="#DDF7FF" font-size="52" font-family="'Segoe UI', Arial, sans-serif" font-weight="700">AI Workspace Preview</text>
  <text x="130" y="865" fill="#8ED9F4" font-size="24" font-family="'Segoe UI', Arial, sans-serif">Generated visual concept for CMS demo and recruiter-facing portfolio storytelling</text>
</svg>
