<svg xmlns="http://www.w3.org/2000/svg" viewBox="0 0 64 64" width="64" height="64">
  <defs>
    <linearGradient id="eqGrad" x1="0%" y1="100%" x2="0%" y2="0%">
      <stop offset="0%" style="stop-color:#5d4037"/>
      <stop offset="50%" style="stop-color:#8d6e63"/>
      <stop offset="100%" style="stop-color:#a1887f"/>
    </linearGradient>
  </defs>
  <!-- Ground crack pattern -->
  <rect x="0" y="44" width="64" height="20" fill="url(#eqGrad)" rx="2"/>
  <!-- Cracks -->
  <path d="M32 44 L28 50 L32 54 L30 60 L28 64" fill="none" stroke="#3e2723" stroke-width="2" stroke-linecap="round"/>
  <path d="M20 44 L18 48 L22 52 L20 56" fill="none" stroke="#3e2723" stroke-width="1.5" stroke-linecap="round"/>
  <path d="M44 44 L46 50 L42 54 L44 58" fill="none" stroke="#3e2723" stroke-width="1.5" stroke-linecap="round"/>
  <path d="M10 46 L14 50 L10 54" fill="none" stroke="#3e2723" stroke-width="1" stroke-linecap="round"/>
  <path d="M54 46 L50 50 L54 54" fill="none" stroke="#3e2723" stroke-width="1" stroke-linecap="round"/>
  <!-- Shaking buildings -->
  <rect x="10" y="20" width="12" height="24" fill="#90a4ae" stroke="#546e7a" stroke-width="1" transform="rotate(-3 16 44)"/>
  <rect x="42" y="24" width="10" height="20" fill="#78909c" stroke="#546e7a" stroke-width="1" transform="rotate(4 47 44)"/>
  <rect x="26" y="14" width="12" height="30" fill="#b0bec5" stroke="#546e7a" stroke-width="1" transform="rotate(-2 32 44)"/>
  <!-- Debris -->
  <rect x="8" y="16" width="4" height="4" fill="#8d6e63" transform="rotate(25 10 18)" opacity="0.8"/>
  <rect x="52" y="20" width="3" height="3" fill="#a1887f" transform="rotate(-15 53 21)" opacity="0.7"/>
  <circle cx="38" cy="10" r="2" fill="#8d6e63" opacity="0.6"/>
  <!-- Shockwave lines -->
  <path d="M4 40 Q16 36 32 40 Q48 44 60 40" fill="none" stroke="#ff5722" stroke-width="1.5" opacity="0.6"/>
  <path d="M8 36 Q24 32 32 36 Q40 40 56 36" fill="none" stroke="#ff5722" stroke-width="1" opacity="0.4"/>
</svg>
